<svg xmlns="http://www.w3.org/2000/svg" viewBox="0 0 480 104" width="480" height="104"
     role="img" style="max-width:100%;height:auto;display:block;margin:0 auto">
<defs>
<linearGradient id="ban_good" x1="0" y1="0" x2="1" y2="0">
<stop offset="0" stop-color="#0a1729"/><stop offset="1" stop-color="#1d5489"/>
</linearGradient>
</defs>
<rect x="1" y="1" width="478" height="102" rx="14" fill="url(#ban_good)"/>
<rect x="9.5" y="9.5" width="461" height="85" rx="9" fill="none"
      stroke="#5db6ee" stroke-width="1.5" stroke-opacity="0.6"/>
<g transform="translate(30 18)"><path d="M32 0l28 10v26c0 18-12 30-28 38C16 66 4 54 4 36V10z" fill="none" stroke="#5db6ee" stroke-width="4.5" stroke-linejoin="round"/><polygon points="32,16 37,30 52,30 40,39 44,54 32,45 20,54 24,39 12,30 27,30" fill="#bfe6ff" fill-opacity="0.9"/></g>
<text x="126" y="52" font-family="system-ui, 'PingFang SC', 'Noto Sans CJK SC', 'Microsoft YaHei', sans-serif" font-size="30" font-weight="bold"
      fill="#bfe6ff">好人阵营胜利</text>
<text x="126" y="78" font-family="system-ui, 'PingFang SC', 'Noto Sans CJK SC', 'Microsoft YaHei', sans-serif" font-size="14" fill="#bfe6ff"
      fill-opacity="0.8">场上狼已全部倒下</text>
</svg>
