<svg xmlns="http://www.w3.org/2000/svg" viewBox="0 0 460 72" width="460" height="72"
     role="img" style="max-width:100%;height:auto;display:block;margin:0 auto">
<defs>
<linearGradient id="bg_wolf_king" x1="0" y1="0" x2="1" y2="0">
<stop offset="0" stop-color="#2b0b11"/><stop offset="1" stop-color="#7a1a26"/>
</linearGradient>
</defs>
<rect x="1" y="1" width="458" height="70" rx="12" fill="url(#bg_wolf_king)"/>
<rect x="7.5" y="7.5" width="445" height="57" rx="8" fill="none"
      stroke="#c8434f" stroke-width="1.2" stroke-opacity="0.6"/>
<circle cx="36" cy="36" r="21" fill="#c8434f" fill-opacity="0.3"/>
<circle cx="36" cy="36" r="21" fill="none" stroke="#c8434f" stroke-width="1.6"/>
<text x="36" y="35" font-family="system-ui, 'PingFang SC', 'Noto Sans CJK SC', 'Microsoft YaHei', sans-serif" font-size="18" font-weight="bold"
      text-anchor="middle" fill="#ffb3b3">{{SEAT}}</text>
<text x="36" y="48" font-family="system-ui, 'PingFang SC', 'Noto Sans CJK SC', 'Microsoft YaHei', sans-serif" font-size="9" text-anchor="middle"
      fill="#ffb3b3" fill-opacity="0.75">号</text>
<g transform="translate(72 36) scale(0.42) translate(0 -40)"><path d="M48 10a34 34 0 1 0 0 66 27 27 0 0 1 0-66z" fill="#c8434f" fill-opacity="0.9"/><polygon points="56,26 64,44 72,24 80,44 88,26 88,54 56,54" fill="#ffb3b3" fill-opacity="0.9"/><rect x="56" y="56" width="32" height="6" rx="3" fill="#ffb3b3" fill-opacity="0.9"/></g>
<text x="124" y="44" font-family="'Songti SC', 'Noto Serif CJK SC', 'SimSun', serif" font-size="26" font-weight="bold"
      fill="#ffb3b3">狼王</text>
<text x="446" y="31" font-family="system-ui, 'PingFang SC', 'Noto Sans CJK SC', 'Microsoft YaHei', sans-serif" font-size="13" text-anchor="end"
      fill="#ffb3b3" fill-opacity="0.95">死亡时可带走一人，被毒不能开枪</text>
<text x="446" y="52" font-family="system-ui, 'PingFang SC', 'Noto Sans CJK SC', 'Microsoft YaHei', sans-serif" font-size="11.5" text-anchor="end"
      fill="#ffb3b3" fill-opacity="0.7">狼人阵营 · 狼人</text>
</svg>
